<?xml version="1.0" encoding="utf-8"?>
<!-- Generator: Adobe Illustrator 18.1.1, SVG Export Plug-In . SVG Version: 6.00 Build 0)  -->
<svg version="1.1" id="Layer_1" xmlns="http://www.w3.org/2000/svg" xmlns:xlink="http://www.w3.org/1999/xlink" x="0px" y="0px"
	 viewBox="143.1 145.5 309.1 396" enable-background="new 143.1 145.5 309.1 396" xml:space="preserve">
<g>
	<path d="M434.9,185.4c-17.5-25.7-46.8-39.9-82.5-39.9c-14.8,0-29.8,2.3-44.7,6.5c-8.2-1.6-16.7-2.4-25.4-2.4
		c-76.7,0-139.2,63.5-139.2,141.6c0,10.1,1.1,20,3.1,29.5c-1.2,7.5-1.8,15.4-1.7,23.7c0,11.8,1.1,23.6,2.1,35
		c1.1,11.5,2.1,22.4,2.1,33.4c-0.1,67.1,56.3,105.7,109.2,119.3c3.7,1,6.5,2.2,9.5,3.5c6.3,2.8,13.5,5.9,27.1,5.9
		c13.5,0,20.7-3.1,27.1-5.8c3-1.3,5.8-2.5,9.4-3.4c52.9-13.4,109.4-51.9,109.2-119.5c0-10.9,1-21.8,2.1-33.3
		c1.1-11.4,2.1-23.3,2.1-35.2c0-13.2-1.4-25.5-4.3-36.8C457.9,261.1,456,216.6,434.9,185.4z M417.4,197.2c16,23.5,18,57.3,6.1,93.9
		c-75.3-39.9-164.6-42.4-241.5-7.3c15.6-29.2,37.9-55.8,64.6-76.6c33.6-26.2,71.2-40.6,105.7-40.6
		C381.3,166.5,403.8,177.1,417.4,197.2z M259.5,172.9c-37.3,21.9-70.7,55.5-93.3,95.6C175.3,220.4,212.4,182.3,259.5,172.9z
		 M421.2,377.6c-1.1,11.4-2.1,23.3-2.1,35.2c0.2,55.5-48.1,87.6-93.4,99c-5.2,1.3-9.1,3-12.6,4.5c-5.6,2.4-9.6,4.1-18.8,4.1
		c-9.2,0-13.2-1.7-18.7-4.1c-3.4-1.5-7.4-3.2-12.6-4.6c-45.2-11.7-93.5-43.8-93.4-98.9c0-12-1.1-23.8-2.1-35.4
		c-1.1-11.4-2.1-22.2-2.1-33.1c0-10.9,1.3-20.9,3.6-30.2c77.5-44.8,172.7-45.1,250.5-1.2c2.5,9.6,3.8,20,3.8,31.4
		C423.3,355.3,422.3,366.1,421.2,377.6z"/>
	<path d="M353.7,443.8c-38.1,9.2-78.5,9.2-116.6,0c-2.8-0.7-5.7,1.1-6.3,3.9c-0.7,2.8,1.1,5.7,3.9,6.3c19.9,4.8,40.3,7.2,60.8,7.2
		c20.4,0,40.9-2.4,60.7-7.2c2.8-0.7,4.6-3.5,3.9-6.3C359.3,444.8,356.5,443.1,353.7,443.8z"/>
	<path d="M317.6,493.8c-14.3-5.9-30.1-5.9-44.4,0c-2.7,1.1-4,4.2-2.8,6.9c1.1,2.7,4.2,4,6.9,2.9c11.7-4.8,24.6-4.8,36.3,0
		c0.7,0.3,1.3,0.4,2,0.4c2.1,0,4-1.2,4.9-3.3C321.5,498,320.3,494.9,317.6,493.8z"/>
	<path d="M272.8,395.8c1-2.7-0.3-5.8-3-6.8c-2.7-1-5.8,0.3-6.8,3.1c-2.4,6.3-1.3,13.4,3,18.5c2.9,3.6,9.9,9.1,23.9,7.4
		c1.6,0.9,3.4,1.4,5.3,1.5c0.1,0,0.2,0,0.3,0s0.2,0,0.3,0c1.9-0.1,3.7-0.6,5.3-1.5c14,1.7,20.9-3.8,23.9-7.4
		c4.2-5.1,5.3-12.3,3-18.5c-1-2.7-4.1-4.1-6.8-3.1c-2.7,1-4.1,4.1-3,6.8c1,2.7,0.5,5.9-1.3,8.1c-2.8,3.4-8.5,4.6-16.1,3.4
		c-1.5-0.3-3.1,0.2-4.3,1.2c-0.3,0.2-0.5,0.4-0.8,0.4c-0.3-0.1-0.6-0.2-0.8-0.4c-1.2-1-2.8-1.5-4.3-1.2c-7.6,1.3-13.3,0.1-16.1-3.4
		C272.3,401.7,271.8,398.5,272.8,395.8z"/>
	<path d="M235.8,339.9c0,6.3,4.5,4.4,10.5,4.4c6,0,10.5,1.9,10.5-4.4c0-6.3-4.5-8.5-10.5-8.2C240.3,331.4,235.7,333.6,235.8,339.9z"
		/>
	<path d="M344.4,344.4c6,0,10.6,1.9,10.5-4.4c0-6.3-4.5-8.5-10.5-8.2c-6-0.3-10.5,1.9-10.5,8.2C333.9,346.3,338.4,344.4,344.4,344.4
		z"/>
	<path d="M217.6,336.7c1.6,0,3.2-0.7,4.2-2.1c0.6-0.9,16.2-21.4,45.2-8.6c2.7,1.2,5.8,0,6.9-2.7c1.2-2.7,0-5.8-2.7-6.9
		c-36.6-16.2-57.7,11.7-58,12c-1.7,2.3-1.2,5.6,1.1,7.3C215.4,336.3,216.5,336.7,217.6,336.7z"/>
	<path d="M319.9,316.3c-2.7,1.2-3.9,4.3-2.7,6.9c1.2,2.7,4.3,3.8,6.9,2.7c28.7-12.7,44.5,7.7,45.2,8.6c1,1.4,2.6,2.1,4.2,2.1
		c1.1,0,2.2-0.3,3.1-1c2.3-1.7,2.8-5,1.1-7.3C377.7,328,356.6,300.1,319.9,316.3z"/>
	<path d="M221.2,428c-0.9,0.5-9,5.7-11.4,19.5c-0.5,2.9,1.4,5.6,4.3,6.1c0.3,0,0.6,0.1,0.9,0.1c2.5,0,4.7-1.8,5.2-4.4
		c1.5-8.8,6.1-12,6.4-12.2c2.4-1.5,3.2-4.7,1.8-7.2C227,427.4,223.7,426.6,221.2,428z"/>
	<path d="M367,428c-2.5-1.5-5.7-0.7-7.2,1.8c-1.5,2.5-0.7,5.7,1.8,7.2c0.1,0,4.9,3.3,6.4,12.2c0.4,2.6,2.7,4.4,5.2,4.4
		c0.3,0,0.6,0,0.9-0.1c2.9-0.5,4.8-3.2,4.3-6.1C376.1,433.8,368,428.6,367,428z"/>
</g>
</svg>
